:FULLY-SPECIFIED
:FORCE-ALL-JOINTS-BE-3DOF
:DEGREES
510
root -3.45713 14.6426 -40.3265 -5.95405 -12.1553 -0.0750139
lfemur -3.31045 1.98836 -11.1161
ltibia 57.5562 -0 0
lfoot -21.8822 29.2203 -0.140393
ltoes -24.3518 0 0
rfemur -52.4837 -16.3333 9.99054
rtibia 53.9933 -0 0
rfoot -5.90962 0.350152 0.177964
rtoes 10.7529 -0 0
lowerback 17.1388 0.691092 -8.7948
upperback 0.707061 -0.594279 2.43484
thorax -8.67898 0.135625 7.82984
lowerneck 1.14053 -12.3629 -13.9866
upperneck 5.12979 -17.2397 12.4536
head 3.69744 -8.63464 5.21881
lclavicle 1.71845e-14 -7.74667e-15 8.60267e-31
lhumerus -60.1555 -24.817 101.818
lradius 100.505 -0 0
lwrist 62.118 0 0
lhand -34.8682 39.2062 -0.244351
lfingers 7.12502 -0 0
lthumb -7.99475 67.9463 -0.183807
rclavicle 1.71845e-14 -7.74667e-15 8.60267e-31
rhumerus 16.4248 10.6812 -48.99
rradius 70.4312 -0 0
rwrist -17.5908 0 0
rhand -9.94828 -14.3179 -1.04544
rfingers 7.12502 -0 0
rthumb 15.7998 -41.0412 -0.00646503
511
root -3.57768 14.6348 -40.402 -6.05971 -14.5378 0.182923
lfemur -3.0079 2.24743 -10.902
ltibia 57.3527 -0 0
lfoot -21.7908 29.0526 -0.137984
ltoes -24.4445 0 0
rfemur -52.5377 -16.6595 9.88694
rtibia 54.5238 -0 0
rfoot -5.86771 0.815398 0.174895
rtoes 10.7078 -0 0
lowerback 17.1509 0.765415 -8.80618
upperback 0.707393 -0.508005 2.36145
thorax -8.70502 0.17615 7.73406
lowerneck 1.03594 -12.3046 -13.953
upperneck 5.21394 -17.1494 12.3562
head 3.71494 -8.58742 5.18401
lclavicle 1.68032e-14 -7.50041e-15 8.45519e-31
lhumerus -60.679 -24.3687 101.769
lradius 100.693 -0 0
lwrist 62.8573 0 0
lhand -35.5309 39.2468 -0.240113
lfingers 7.12502 -0 0
lthumb -8.63354 67.9779 -0.180622
rclavicle 1.68032e-14 -7.50041e-15 8.45519e-31
rhumerus 16.0727 10.3963 -49.3303
rradius 69.4291 -0 0
rwrist -17.1877 0 0
rhand -10.8031 -14.1826 -1.02716
rfingers 7.12502 -0 0
rthumb 14.9852 -41.0403 -0.00635226
512
root -3.69823 14.627 -40.4774 -6.17781 -16.9198 0.44849
lfemur -2.70433 2.50537 -10.6864
ltibia 57.1493 -0 0
lfoot -21.6993 28.885 -0.135307
ltoes -24.5372 0 0
rfemur -52.5912 -16.9858 9.78348
rtibia 55.0544 -0 0
rfoot -5.82583 1.28064 0.171487
rtoes 10.6628 -0 0
lowerback 17.1629 0.839741 -8.81754
upperback 0.707615 -0.42173 2.28807
thorax -8.73113 0.216633 7.63827
lowerneck 0.931402 -12.2462 -13.9194
upperneck 5.29788 -17.059 12.259
head 3.73241 -8.54019 5.14923
lclavicle 1.6422e-14 -7.25416e-15 8.29133e-31
lhumerus -61.2011 -23.9209 101.716
lradius 100.88 -0 0
lwrist 63.5965 0 0
lhand -36.1935 39.2873 -0.235407
lfingers 7.12502 -0 0
lthumb -9.27232 68.0095 -0.177084
rclavicle 1.6422e-14 -7.25416e-15 8.29133e-31
rhumerus 15.7227 10.1094 -49.6685
rradius 68.427 -0 0
rwrist -16.7846 0 0
rhand -11.6578 -14.0475 -1.00687
rfingers 7.12502 -0 0
rthumb 14.1706 -41.0395 -0.00622703
513
root -3.81879 14.6192 -40.5529 -6.30923 -19.3013 0.722893
lfemur -2.39973 2.76216 -10.4695
ltibia 56.9459 -0 0
lfoot -21.6079 28.7173 -0.132363
ltoes -24.6298 0 0
rfemur -52.6442 -17.3122 9.68016
rtibia 55.5849 -0 0
rfoot -5.78397 1.74588 0.167738
rtoes 10.6177 -0 0
lowerback 17.175 0.914069 -8.82888
upperback 0.707726 -0.335454 2.21468
thorax -8.75731 0.257071 7.54246
lowerneck 0.826923 -12.1877 -13.886
upperneck 5.38162 -16.9685 12.162
head 3.74985 -8.49294 5.11447
lclavicle 1.60407e-14 -7.0079e-15 8.11109e-31
lhumerus -61.7218 -23.4735 101.658
lradius 101.068 -0 0
lwrist 64.3357 0 0
lhand -36.8561 39.3278 -0.230232
lfingers 7.12502 -0 0
lthumb -9.9111 68.0411 -0.173195
rclavicle 1.60407e-14 -7.0079e-15 8.11109e-31
rhumerus 15.3748 9.82044 -50.0047
rradius 67.425 -0 0
rwrist -16.3815 0 0
rhand -12.5125 -13.9128 -0.984563
rfingers 7.12502 -0 0
rthumb 13.356 -41.0386 -0.00608937
514
root -3.93934 14.6113 -40.6284 -6.45497 -21.6822 1.00747
lfemur -2.09408 3.01779 -10.2511
ltibia 56.7425 -0 0
lfoot -21.5165 28.5497 -0.129151
ltoes -24.7225 0 0
rfemur -52.6967 -17.6386 9.57696
rtibia 56.1155 -0 0
rfoot -5.74215 2.21112 0.16365
rtoes 10.5726 -0 0
lowerback 17.187 0.9884 -8.84022
upperback 0.707726 -0.249179 2.1413
thorax -8.78356 0.297466 7.44663
lowerneck 0.722501 -12.1292 -13.8527
upperneck 5.46516 -16.8779 12.0651
head 3.76726 -8.44569 5.07973
lclavicle 1.56595e-14 -6.76165e-15 7.91445e-31
lhumerus -62.2414 -23.0266 101.596
lradius 101.256 -0 0
lwrist 65.075 0 0
lhand -37.5188 39.3682 -0.22459
lfingers 7.12502 -0 0
lthumb -10.5499 68.0726 -0.168954
rclavicle 1.56595e-14 -6.76165e-15 7.91445e-31
rhumerus 15.0289 9.52948 -50.3388
rradius 66.4229 -0 0
rwrist -15.9784 0 0
rhand -13.3671 -13.7785 -0.96025
rfingers 7.12502 -0 0
rthumb 12.5414 -41.0377 -0.00593932
515
root -4.05989 14.6035 -40.7038 -6.61624 -24.0623 1.3037
lfemur -1.78739 3.27225 -10.0314
ltibia 56.539 -0 0
lfoot -21.4251 28.382 -0.125672
ltoes -24.8152 0 0
rfemur -52.7487 -17.9652 9.4739
rtibia 56.646 -0 0
rfoot -5.70036 2.67635 0.159222
rtoes 10.5276 -0 0
lowerback 17.199 1.06273 -8.85153
upperback 0.707616 -0.162904 2.06792
thorax -8.80988 0.337816 7.35078
lowerneck 0.618138 -12.0706 -13.8195
upperneck 5.5485 -16.7871 11.9685
head 3.78464 -8.39843 5.045
lclavicle 1.52782e-14 -6.51539e-15 7.70144e-31
lhumerus -62.7597 -22.5803 101.53
lradius 101.444 -0 0
lwrist 65.8142 0 0
lhand -38.1814 39.4085 -0.218481
lfingers 7.12502 -0 0
lthumb -11.1886 68.1041 -0.164361
rclavicle 1.52782e-14 -6.51539e-15 7.70144e-31
rhumerus 14.6849 9.23655 -50.6708
rradius 65.4208 -0 0
rwrist -15.5754 0 0
rhand -14.2216 -13.6445 -0.933937
rfingers 7.12502 -0 0
rthumb 11.7268 -41.0368 -0.0057769
516
root -4.18045 14.5957 -40.7793 -6.79443 -26.4416 1.61328
lfemur -1.47964 3.52554 -9.81016
ltibia 56.3356 -0 0
lfoot -21.3337 28.2144 -0.121925
ltoes -24.9078 0 0
rfemur -52.8001 -18.2919 9.37095
rtibia 57.1766 -0 0
rfoot -5.65861 3.14158 0.154455
rtoes 10.4825 -0 0
lowerback 17.2111 1.13707 -8.86283
upperback 0.707395 -0.0766284 1.99454
thorax -8.83626 0.378123 7.25491
lowerneck 0.513832 -12.0119 -13.7864
upperneck 5.63164 -16.6962 11.872
head 3.80198 -8.35116 5.0103
lclavicle 1.4897e-14 -6.26913e-15 7.47203e-31
lhumerus -63.2769 -22.1345 101.46
lradius 101.631 -0 0
lwrist 66.5535 0 0
lhand -38.844 39.4487 -0.211906
lfingers 7.12502 -0 0
lthumb -11.8274 68.1355 -0.159419
rclavicle 1.4897e-14 -6.26913e-15 7.47203e-31
rhumerus 14.343 8.94166 -51.0007
rradius 64.4188 -0 0
rwrist -15.1723 0 0
rhand -15.0761 -13.5109 -0.905629
rfingers 7.12502 -0 0
rthumb 10.9121 -41.036 -0.00560215
517
root -4.301 14.5879 -40.8548 -6.99121 -28.82 1.9381
lfemur -1.17083 3.77763 -9.58754
ltibia 56.1322 -0 0
lfoot -21.2423 28.0468 -0.117911
ltoes -25.0005 0 0
rfemur -52.851 -18.6186 9.26812
rtibia 57.7071 -0 0
rfoot -5.6169 3.60681 0.14935
rtoes 10.4374 -0 0
lowerback 17.223 1.21141 -8.87412
upperback 0.707064 0.00964634 1.92115
thorax -8.86271 0.418385 7.15902
lowerneck 0.409584 -11.9532 -13.7534
upperneck 5.71458 -16.6052 11.7758
head 3.8193 -8.30387 4.97561
lclavicle 1.45157e-14 -6.02288e-15 7.22624e-31
lhumerus -63.7931 -21.6893 101.386
lradius 101.819 -0 0
lwrist 67.2927 0 0
lhand -39.5066 39.4889 -0.204866
lfingers 7.12502 -0 0
lthumb -12.4662 68.1668 -0.154126
rclavicle 1.45157e-14 -6.02288e-15 7.22624e-31
rhumerus 14.0031 8.64483 -51.3286
rradius 63.4167 -0 0
rwrist -14.7692 0 0
rhand -15.9305 -13.3778 -0.875333
rfingers 7.12502 -0 0
rthumb 10.0975 -41.0351 -0.0054151
518
root -4.42155 14.5801 -40.9302 -7.20851 -31.1973 2.28035
lfemur -0.860945 4.02851 -9.3635
ltibia 55.9288 -0 0
lfoot -21.1509 27.8791 -0.11363
ltoes -25.0932 0 0
rfemur -52.9014 -18.9454 9.16539
rtibia 58.2377 -0 0
rfoot -5.57523 4.07204 0.143906
rtoes 10.3923 -0 0
lowerback 17.235 1.28575 -8.88539
upperback 0.706623 0.0959206 1.84777
thorax -8.88923 0.458603 7.06311
lowerneck 0.305392 -11.8944 -13.7205
upperneck 5.79733 -16.514 11.6797
head 3.83658 -8.25658 4.94095
lclavicle 1.41345e-14 -5.77662e-15 6.96406e-31
lhumerus -64.3083 -21.2448 101.307
lradius 102.007 -0 0
lwrist 68.032 0 0
lhand -40.1692 39.529 -0.197362
lfingers 7.12502 -0 0
lthumb -13.105 68.1981 -0.148485
rclavicle 1.41345e-14 -5.77662e-15 6.96406e-31
rhumerus 13.6652 8.3461 -51.6545
rradius 62.4146 -0 0
rwrist -14.3661 0 0
rhand -16.7848 -13.2451 -0.843055
rfingers 7.12502 -0 0
rthumb 9.28293 -41.0343 -0.00521578
519
root -4.5421 14.5722 -41.0057 -7.44865 -33.5734 2.64254
lfemur -0.549981 4.27819 -9.13803
ltibia 55.7253 -0 0
lfoot -21.0595 27.7115 -0.109082
ltoes -25.1858 0 0
rfemur -52.9512 -19.2723 9.06276
rtibia 58.7682 -0 0
rfoot -5.53361 4.53725 0.138123
rtoes 10.3473 -0 0
lowerback 17.247 1.36009 -8.89664
upperback 0.70607 0.182194 1.77438
thorax -8.91581 0.498777 6.96719
lowerneck 0.201258 -11.8356 -13.6878
upperneck 5.87987 -16.4227 11.5837
head 3.85384 -8.20928 4.9063
lclavicle 1.37532e-14 -5.53037e-15 6.6855e-31
lhumerus -64.8227 -20.8009 101.225
lradius 102.195 -0 0
lwrist 68.7712 0 0
lhand -40.8318 39.569 -0.189395
lfingers 7.12502 -0 0
lthumb -13.7437 68.2293 -0.142495
rclavicle 1.37532e-14 -5.53037e-15 6.6855e-31
rhumerus 13.3293 8.04548 -51.9783
rradius 61.4126 -0 0
rwrist -13.963 0 0
rhand -17.6391 -13.113 -0.808803
rfingers 7.12502 -0 0
rthumb 8.46833 -41.0334 -0.00500425
